<svg width="512" height="512" viewBox="0 0 512 512" fill="none" xmlns="http://www.w3.org/2000/svg">
<g clip-path="url(#clip0_206_224)">
<path d="M512 0H0V512H512V0Z" fill="white"/>
<path d="M374.834 44H137.851C134.62 44 132 46.6198 132 49.8514V465.303C132 468.535 134.62 471.154 137.851 471.154H374.834C378.066 471.154 380.686 468.535 380.686 465.303V49.8514C380.686 46.6198 378.066 44 374.834 44Z" stroke="black" stroke-width="16"/>
<path d="M133.12 201.874H378.88" stroke="black" stroke-width="16"/>
<path d="M164 160.92V79" stroke="black" stroke-width="16" stroke-linecap="round"/>
<path d="M164 333.537V251.617" stroke="black" stroke-width="16" stroke-linecap="round"/>
<path d="M431.277 159.211C431.985 160.93 433.387 162.27 435.136 162.9L449.262 167.986C451.907 168.938 451.907 172.679 449.262 173.631L435.136 178.717C433.387 179.347 431.985 180.687 431.277 182.406L425.327 196.87C424.308 199.348 420.798 199.348 419.778 196.87L413.828 182.406L413.53 181.78C412.763 180.363 411.499 179.268 409.969 178.717L395.841 173.631C393.196 172.679 393.196 168.938 395.841 167.986L409.969 162.9C411.719 162.27 413.12 160.93 413.828 159.211L419.778 144.745C420.798 142.267 424.308 142.267 425.327 144.745L431.277 159.211Z" fill="black" stroke="black" stroke-width="2.5"/>
<path d="M416.648 104.485C417.684 107.024 419.729 108.998 422.277 109.923L425.413 111.062C426.291 111.381 426.291 112.623 425.413 112.942L422.277 114.081C420.049 114.89 418.204 116.502 417.083 118.593L416.648 119.518L414.928 123.732C414.589 124.562 413.415 124.562 413.076 123.732L411.356 119.518C410.32 116.98 408.275 115.005 405.727 114.081L402.589 112.942C401.711 112.623 401.711 111.381 402.589 111.062L405.727 109.923C408.275 108.998 410.32 107.024 411.356 104.485L413.076 100.269C413.415 99.4396 414.59 99.4396 414.928 100.269L416.648 104.485Z" fill="black" stroke="black" stroke-width="2.5"/>
<path d="M293 44L368 44" stroke="white" stroke-width="17"/>
<path d="M381 114V50" stroke="white" stroke-width="17"/>
<path d="M360 44H381" stroke="black" stroke-width="16" stroke-linecap="round"/>
<path d="M381 64V44" stroke="black" stroke-width="16" stroke-linecap="round"/>
<path d="M290 44H295.851" stroke="black" stroke-width="16" stroke-linecap="round"/>
<path d="M381 143.851V138" stroke="black" stroke-width="15" stroke-linecap="round"/>
<path d="M380.343 193.097V187.246" stroke="black" stroke-width="15" stroke-linecap="round"/>
<path d="M348.441 67.8886C349.152 69.6057 350.553 70.9421 352.303 71.5685L391.144 85.4682C394.681 86.7337 394.681 91.7349 391.144 93.0004L352.303 106.9C350.773 107.448 349.506 108.54 348.736 109.954L348.441 110.58L332.839 148.269C331.475 151.563 326.81 151.563 325.447 148.269L309.845 110.58L309.549 109.954C308.78 108.54 307.513 107.448 305.983 106.9L267.139 93.0004C263.603 91.7349 263.603 86.7336 267.139 85.4681L305.983 71.5685C307.732 70.9421 309.134 69.6057 309.845 67.8886L325.447 30.197C326.81 26.9035 331.475 26.9035 332.839 30.197L348.441 67.8886Z" fill="black" stroke="black" stroke-width="2.5"/>
</g>
<defs>
<clipPath id="clip0_206_224">
<rect width="512" height="512" fill="white"/>
</clipPath>
</defs>
</svg>
